<svg width="60px" height="57px" viewBox="0 0 60 57" version="1.1" xmlns="http://www.w3.org/2000/svg" xmlns:xlink="http://www.w3.org/1999/xlink">
    <g id="Page-3" stroke="none" stroke-width="1" fill="none" fill-rule="evenodd">
        <g id="newProcess">
            <g id="Group-2">
                <g id="Group"></g>
                <path d="M31.9391635,38.960041 L31.9391635,34.8104508 L51.8935361,34.8104508 C54.1026751,34.8104508 55.8935361,33.0195898 55.8935361,30.8104508 L55.8935361,8.14959016 C55.8935361,5.94045116 54.1026751,4.14959016 51.8935361,4.14959016 L8.10646388,4.14959016 C5.89732488,4.14959016 4.10646388,5.94045116 4.10646388,8.14959016 L4.10646388,26.5112705 L0,26.5112705 L0,6 C-4.05812251e-16,2.6862915 2.6862915,2.38507522e-15 6,1.77635684e-15 L54,0 C57.3137085,2.334446e-15 60,2.6862915 60,6 L60,32.960041 C60,36.2737495 57.3137085,38.960041 54,38.960041 L31.9391635,38.960041 Z" id="Shape" fill="#4A90E2" fill-rule="nonzero"></path>
                <rect id="Rectangle" fill="#4A90E2" x="0" y="30.4303279" width="14.1444867" height="13.8319672" rx="4"></rect>
                <rect id="Rectangle" fill="#4A90E2" x="31.4828897" y="9.45184426" width="14.1444867" height="13.8319672" rx="4"></rect>
                <path d="M7.46390803,37.2544586 C14.1262179,37.7719566 17.9855335,37.5765441 19.0418548,36.6682209 C20.6263367,35.3057361 24.8143659,19.832694 26.5284874,17.5983867 C27.6712351,16.1088484 30.3319409,15.7444385 34.5106048,16.505157" id="Path-2" stroke="#4A90E2" stroke-width="3"></path>
            </g>
            <path d="M40.4285714,33 L21.5714286,33 C20.1517857,33 19,34.1517857 19,35.5714286 L19,54.4285714 C19,55.8482143 20.1517857,57 21.5714286,57 L40.4285714,57 C41.8482143,57 43,55.8482143 43,54.4285714 L43,35.5714286 C43,34.1517857 41.8482143,33 40.4285714,33 Z M38.7142857,46.5 C38.7142857,46.8535714 38.425,47.1428571 38.0714286,47.1428571 L33.1428571,47.1428571 L33.1428571,52.0714286 C33.1428571,52.425 32.8535714,52.7142857 32.5,52.7142857 L29.5,52.7142857 C29.1464286,52.7142857 28.8571429,52.425 28.8571429,52.0714286 L28.8571429,47.1428571 L23.9285714,47.1428571 C23.575,47.1428571 23.2857143,46.8535714 23.2857143,46.5 L23.2857143,43.5 C23.2857143,43.1464286 23.575,42.8571429 23.9285714,42.8571429 L28.8571429,42.8571429 L28.8571429,37.9285714 C28.8571429,37.575 29.1464286,37.2857143 29.5,37.2857143 L32.5,37.2857143 C32.8535714,37.2857143 33.1428571,37.575 33.1428571,37.9285714 L33.1428571,42.8571429 L38.0714286,42.8571429 C38.425,42.8571429 38.7142857,43.1464286 38.7142857,43.5 L38.7142857,46.5 Z" id="Shape" fill="#7ED321" fill-rule="nonzero"></path>
        </g>
    </g>
</svg>