<svg width="60px" height="70px" viewBox="0 0 60 70" version="1.1" xmlns="http://www.w3.org/2000/svg" xmlns:xlink="http://www.w3.org/1999/xlink">
    <g id="Page-1" stroke="none" stroke-width="1" fill="none" fill-rule="evenodd">
        <g id="forms" stroke="#4A90E2">
            <rect id="Rectangle" stroke-width="4" fill="#FFFFFF" x="2" y="2" width="56" height="66" rx="8"></rect>
            <g id="Group" transform="translate(18.000000, 6.500000)" fill="#4A90E2">
                <path d="M8.40422542,37.9357493 C13.5710439,41.0129259 3.92206329,45.2366101 0.293564215,42.7046137 C3.87320132,43.9731025 4.55080181,35.6407849 8.40422542,37.9357493 Z" id="Path-5"></path>
                <path d="M8.36519865,33.8607327 C8.0484982,34.6032774 8.0484982,35.1686263 8.20874619,35.7954935 C8.71566267,37.7784782 12.1425885,38.1170807 13.2804997,36.5287133 C14.2187291,35.2190743 21.7791013,23.1276823 35.9616163,0.254537443 L8.36519865,33.8607327 Z" id="Path-6"></path>
            </g>
            <rect id="Rectangle" stroke-width="3" x="9.5" y="18.5" width="17" height="17" rx="4"></rect>
            <path d="M7.754834,53 L26.1032155,53" id="Line-9" stroke-width="3" stroke-linecap="square"></path>
            <path d="M8,58 L52,58" id="Line-10" stroke-width="3" stroke-linecap="square"></path>
            <path d="M8,63 L52,63" id="Line-11" stroke-width="3" stroke-linecap="square"></path>
        </g>
    </g>
</svg>
