<svg width="60px" height="70px" viewBox="0 0 60 70" version="1.1" xmlns="http://www.w3.org/2000/svg" xmlns:xlink="http://www.w3.org/1999/xlink">
    <g id="Page-1" stroke="none" stroke-width="1" fill="none" fill-rule="evenodd">
        <g id="new-form">
            <rect id="Rectangle" stroke="#4A90E2" stroke-width="4" fill="#FFFFFF" x="2" y="2" width="56" height="66" rx="8"></rect>
            <g id="Group" transform="translate(18.000000, 6.500000)" fill="#4A90E2" stroke="#4A90E2">
                <path d="M8.40422542,37.9357493 C13.5710439,41.0129259 3.92206329,45.2366101 0.293564215,42.7046137 C3.87320132,43.9731025 4.55080181,35.6407849 8.40422542,37.9357493 Z" id="Path-5"></path>
                <path d="M8.36519865,33.8607327 C8.0484982,34.6032774 8.0484982,35.1686263 8.20874619,35.7954935 C8.71566267,37.7784782 12.1425885,38.1170807 13.2804997,36.5287133 C14.2187291,35.2190743 21.7791013,23.1276823 35.9616163,0.254537443 L8.36519865,33.8607327 Z" id="Path-6"></path>
            </g>
            <path d="M27.4285714,11 L8.57142857,11 C7.15178571,11 6,12.1517857 6,13.5714286 L6,32.4285714 C6,33.8482143 7.15178571,35 8.57142857,35 L27.4285714,35 C28.8482143,35 30,33.8482143 30,32.4285714 L30,13.5714286 C30,12.1517857 28.8482143,11 27.4285714,11 Z M25.7142857,24.5 C25.7142857,24.8535714 25.425,25.1428571 25.0714286,25.1428571 L20.1428571,25.1428571 L20.1428571,30.0714286 C20.1428571,30.425 19.8535714,30.7142857 19.5,30.7142857 L16.5,30.7142857 C16.1464286,30.7142857 15.8571429,30.425 15.8571429,30.0714286 L15.8571429,25.1428571 L10.9285714,25.1428571 C10.575,25.1428571 10.2857143,24.8535714 10.2857143,24.5 L10.2857143,21.5 C10.2857143,21.1464286 10.575,20.8571429 10.9285714,20.8571429 L15.8571429,20.8571429 L15.8571429,15.9285714 C15.8571429,15.575 16.1464286,15.2857143 16.5,15.2857143 L19.5,15.2857143 C19.8535714,15.2857143 20.1428571,15.575 20.1428571,15.9285714 L20.1428571,20.8571429 L25.0714286,20.8571429 C25.425,20.8571429 25.7142857,21.1464286 25.7142857,21.5 L25.7142857,24.5 Z" id="Shape" fill="#7ED321" fill-rule="nonzero"></path>
            <path d="M7.754834,53 L26.1032155,53" id="Line-9" stroke="#4A90E2" stroke-width="3" stroke-linecap="square"></path>
            <path d="M8,58 L52,58" id="Line-10" stroke="#4A90E2" stroke-width="3" stroke-linecap="square"></path>
            <path d="M8,63 L52,63" id="Line-11" stroke="#4A90E2" stroke-width="3" stroke-linecap="square"></path>
        </g>
    </g>
</svg>
