<svg width="244px" height="180px" viewBox="0 0 244 180" version="1.1" xmlns="http://www.w3.org/2000/svg" xmlns:xlink="http://www.w3.org/1999/xlink">
    <g id="Page-3" stroke="none" stroke-width="1" fill="none" fill-rule="evenodd">
        <g id="Group-2">
            <g id="Group"></g>
            <path d="M129.885932,158.4375 L129.885932,141.5625 L203.30038,141.5625 C216.555214,141.5625 227.30038,130.817334 227.30038,117.5625 L227.30038,40.875 C227.30038,27.620166 216.555214,16.875 203.30038,16.875 L40.6996198,16.875 C27.4447858,16.875 16.6996198,27.620166 16.6996198,40.875 L16.6996198,107.8125 L0,107.8125 L0,31 C-2.09669663e-15,13.8791728 13.8791728,3.14504494e-15 31,0 L213,0 C230.120827,-3.14504494e-15 244,13.8791728 244,31 L244,127.4375 C244,144.558327 230.120827,158.4375 213,158.4375 L129.885932,158.4375 Z" id="Shape" fill="#4A90E2" fill-rule="nonzero"></path>
            <rect id="Rectangle" fill="#4A90E2" x="0" y="123.75" width="57.5209125" height="56.25" rx="8"></rect>
            <rect id="Rectangle" fill="#4A90E2" x="128.030418" y="38.4375" width="57.5209125" height="56.25" rx="8"></rect>
            <path d="M30.353226,151.501465 C57.4466195,153.605957 73.1411696,152.811279 77.4368762,149.117432 C83.8804361,143.57666 100.911755,80.6529558 107.882515,71.5667725 C112.529689,65.5093169 123.349893,64.0273833 140.343126,67.1209717" id="Path-2" stroke="#4A90E2" stroke-width="18"></path>
        </g>
    </g>
</svg>